<?xml version="1.0" standalone="no"?>
<!DOCTYPE svg PUBLIC "-//W3C//DTD SVG 20010904//EN"
 "http://www.w3.org/TR/2001/REC-SVG-20010904/DTD/svg10.dtd">
<svg version="1.0" xmlns="http://www.w3.org/2000/svg"
 width="700.000000pt" height="700.000000pt" viewBox="0 0 700.000000 700.000000"
 preserveAspectRatio="xMidYMid meet">
<metadata>
Created by potrace 1.11, written by Peter Selinger 2001-2013
</metadata>
<g transform="translate(0.000000,700.000000) scale(0.100000,-0.100000)"
fill="#000000" stroke="none">
<path d="M3417 6914 c-1 -1 -62 -4 -136 -8 -74 -4 -137 -8 -140 -10 -3 -2 -36
-7 -73 -10 -74 -8 -88 -10 -198 -31 -279 -53 -536 -134 -764 -239 -43 -20 -79
-36 -81 -36 -7 0 -250 -132 -285 -154 -19 -13 -69 -45 -110 -71 -273 -176
-568 -442 -776 -700 -133 -166 -214 -284 -344 -505 -15 -26 -107 -213 -136
-275 -40 -89 -122 -310 -140 -380 -1 -5 -12 -44 -24 -85 -12 -41 -23 -82 -25
-90 -2 -8 -10 -46 -19 -83 -26 -112 -65 -377 -70 -482 -1 -19 5 -20 187 -20
103 -1 188 2 188 5 3 10 7 45 13 105 7 61 12 101 21 145 3 14 8 42 10 63 15
118 126 491 186 624 90 199 225 447 291 533 11 14 49 65 86 115 110 149 228
278 403 441 123 114 360 283 550 390 239 136 640 283 863 318 21 4 48 8 60 11
131 29 346 49 546 49 809 1 1573 -316 2146 -890 392 -393 665 -876 800 -1414
14 -58 28 -114 29 -125 2 -11 10 -60 19 -110 15 -89 27 -186 30 -235 l2 -25
191 -1 c188 0 191 0 188 20 -2 12 -6 55 -10 97 -3 42 -8 87 -10 100 -2 13 -11
69 -20 124 -37 224 -103 458 -192 680 -221 555 -540 988 -1028 1400 -16 14
-82 63 -146 110 -511 374 -1147 603 -1774 641 -95 5 -304 11 -308 8z"/>
<path d="M3237 4214 c-1 -1 -37 -4 -79 -8 -121 -10 -159 -17 -217 -37 -138
-48 -192 -122 -219 -304 -9 -64 -9 -672 0 -745 28 -220 138 -307 410 -327 197
-15 761 -7 848 12 14 3 39 8 55 10 142 25 229 109 256 248 5 28 12 153 15 277
3 124 7 231 9 238 3 8 -11 12 -48 13 -82 0 -749 1 -777 0 l-25 -1 1 -118 c1
-64 2 -126 3 -137 1 -20 7 -20 241 -20 l240 0 0 -52 c0 -135 -31 -146 -410
-145 -360 2 -408 10 -435 76 -21 49 -28 140 -28 326 1 223 12 276 67 309 51
32 133 39 421 37 251 -2 273 -4 318 -24 29 -13 48 -28 49 -39 1 -10 2 -25 4
-33 1 -8 2 -24 3 -36 1 -19 6 -20 184 -20 l182 1 0 70 c1 269 -84 376 -325
410 -108 15 -172 18 -443 19 -164 1 -299 1 -300 0z"/>
<path d="M4997 4215 c-1 -1 -55 -5 -120 -9 -286 -15 -371 -114 -371 -431 0
-199 31 -294 115 -350 66 -45 143 -59 389 -70 487 -21 539 -25 564 -36 32 -15
43 -43 41 -107 -2 -77 -22 -94 -125 -101 -94 -7 -513 -5 -551 2 -60 12 -89 52
-89 122 l0 31 -172 -2 c-95 0 -177 -2 -181 -3 -13 -2 1 -210 19 -270 11 -39
28 -66 62 -100 46 -45 88 -64 195 -86 127 -26 807 -26 955 1 97 17 164 72 206
167 14 31 25 58 24 60 0 1 2 29 7 62 12 100 7 269 -10 335 -39 150 -116 204
-315 224 -54 6 -141 10 -410 21 -299 12 -339 19 -359 61 -28 62 -8 127 46 145
54 19 555 20 599 1 35 -15 54 -48 54 -92 0 -24 4 -30 23 -30 34 -1 225 -1 286
-1 l54 1 -6 108 c-11 232 -80 302 -332 338 -36 5 -592 13 -598 9z"/>
<path d="M1029 4171 c-1 -14 -2 -326 -3 -693 -1 -585 1 -667 14 -671 29 -6
1225 0 1270 7 99 16 159 56 194 129 55 114 54 371 -2 474 -17 31 -70 68 -121
86 -40 13 -42 15 -19 20 39 10 96 68 114 117 14 35 18 79 18 200 0 146 -1 158
-26 211 -15 33 -40 67 -61 83 -74 56 -87 57 -759 60 l-618 2 -1 -25z m1064
-313 c34 -12 47 -42 47 -106 -1 -53 -14 -77 -54 -92 -42 -16 -706 -14 -707 3
-1 6 -2 56 -2 110 l-2 98 344 -2 c201 -1 357 -6 374 -11z m48 -500 c22 -8 31
-19 40 -51 21 -78 -8 -150 -64 -161 -41 -8 -727 -9 -734 -2 -5 4 -7 165 -4
214 1 10 75 12 367 12 217 -1 377 -6 395 -12z"/>
<path d="M96 3261 c-1 -3 -1 -15 0 -26 12 -127 16 -169 19 -183 1 -9 6 -37 9
-62 6 -39 38 -205 50 -265 66 -307 244 -739 413 -1004 61 -95 127 -195 140
-211 6 -8 43 -55 81 -105 377 -492 930 -896 1520 -1111 198 -72 500 -149 663
-169 24 -3 51 -7 59 -10 8 -2 47 -7 85 -10 39 -3 90 -8 115 -11 69 -6 416 -6
500 1 118 9 238 24 330 41 47 9 96 18 110 20 156 29 454 122 636 199 423 181
760 410 1094 745 267 268 472 551 635 880 59 119 154 342 152 360 0 3 5 15 12
28 17 32 76 229 104 352 43 182 85 472 78 536 -1 8 -55 11 -173 12 -194 0
-204 -1 -204 -25 -2 -68 -40 -308 -67 -428 -115 -497 -344 -936 -702 -1344
-100 -114 -301 -297 -440 -402 -347 -261 -811 -469 -1207 -543 -249 -46 -385
-59 -608 -60 -118 0 -301 9 -345 18 -11 2 -47 7 -80 12 -33 4 -62 8 -65 9 -3
0 -27 4 -55 9 -27 4 -111 23 -185 41 -599 149 -1125 468 -1544 937 -74 83
-202 248 -238 306 -12 21 -25 39 -28 42 -16 12 -137 226 -192 340 -86 177
-166 391 -204 545 -43 176 -66 298 -80 430 -4 33 -8 67 -10 75 -1 8 -3 20 -3
26 -1 12 -369 17 -375 5z"/>
</g>
</svg>
