<?xml version="1.0" encoding="utf-8"?>
<!-- Generator: Adobe Illustrator 16.0.3, SVG Export Plug-In . SVG Version: 6.00 Build 0)  -->
<!DOCTYPE svg PUBLIC "-//W3C//DTD SVG 1.1//EN" "http://www.w3.org/Graphics/SVG/1.1/DTD/svg11.dtd">
<svg version="1.1" id="Layer_3" xmlns="http://www.w3.org/2000/svg" xmlns:xlink="http://www.w3.org/1999/xlink" x="0px" y="0px"
	 width="268.586px" height="268.583px" viewBox="0 0 268.586 268.583" enable-background="new 0 0 268.586 268.583"
	 xml:space="preserve">
<g>
	<g>
		<path d="M134.826,134.801"/>
		<g>
			<path fill="#FFFFFF" d="M134.826,134.801"/>
		</g>
		<g>
			<path fill="#800654" d="M105.172,90.048h62.027c1.906,0.271,4.354,4.081,3.947,4.489v12.786h-17.004
				c0.68-0.272-0.273-1.904-0.68-1.495H118.23c-0.545-0.409-2.178,1.495-1.77,1.631s0,0.136,0,0s0,21.63,0,21.63
				c-0.543,0.952,0.545,1.768,0.816,1.359h34.959c0.408,0.272,1.906-1.224,1.088-1.496v-5.713h-21.219v-13.468h39.176v31.831
				c-0.135,2.313-3.535,4.624-6.529,4.487c-0.408-0.018-58.9,0-58.9,0c-6.258-0.271-8.979-7.751-8.298-7.889V96.169
				C97.69,90.728,104.764,89.64,105.172,90.048z"/>
			<path fill="#800654" d="M180.26,89.504h55.77c2.449-0.544,5.986,4.625,5.307,4.625v11.699h-18.229
				c0.816-0.816-0.682-2.178-0.953-1.768h-27.477c-3.266,1.631-0.68,4.623,0,4.487h43.258c1.361,0.136,3.809,3.673,3.266,3.944
				v26.119c-0.545,3.808-7.213,6.663-7.484,6.255h-54.41c-3.131-0.136-4.762-4.334-4.762-4.895c0-0.409,0-12.786,0-12.786h19.045
				c-0.406,0.543-0.203,1.767,0.816,1.767h26.523c4.627-1.36,2.449-6.395-0.271-6.395H178.49c-3.674-0.544-4.49-4.896-3.945-5.031
				V95.081C175.225,90.592,179.715,89.095,180.26,89.504z"/>
		</g>
		<g>
			<polygon fill="#800654" points="34.166,179.147 34.166,172.21 72.526,172.21 162.982,150.036 162.982,156.565 72.526,179.147 			
				"/>
			<polygon fill="#800654" points="34.028,188.125 34.028,181.187 72.388,181.187 162.846,159.014 162.846,165.544 72.388,188.125 
							"/>
			<polygon fill="#800654" points="34.3,196.966 34.3,190.029 72.662,190.029 163.119,167.857 163.119,174.387 72.662,196.966 			
				"/>
			<polygon fill="#800654" points="191.004,176.019 235.484,176.019 235.484,168.945 191.141,168.945 105.58,190.436 
				105.444,196.421 			"/>
			<polygon fill="#800654" points="190.869,184.723 235.35,184.723 235.35,177.651 190.869,177.651 105.307,199.143 
				105.307,205.127 			"/>
			<polygon fill="#800654" points="190.732,193.703 235.213,193.703 235.213,186.629 190.732,186.629 105.172,208.122 
				105.172,214.106 			"/>
		</g>
		<path d="M128.566,158.606"/>
		<path d="M125.914,228.729"/>
		<path d="M156.693,223.424"/>
		<g>
			<polygon fill="#800654" points="106.532,229.475 106.532,246.754 112.584,246.754 112.584,223.424 106.667,223.424 
				100.104,228.387 100.104,233.762 			"/>
			<path fill="#800654" d="M139.383,232.266v3.672h5.85c4.012,3.129-0.068,4.896-0.068,4.896c-2.178,0.68-3.605,0.341-8.094-2.753
				v4.759c-0.063-0.459,2.395,5.337,10.406,3.436c9.455-2.246,7.209-14.146-0.137-14.35l4.896-3.742v-4.76H137.07v4.963l6.053-0.033
				h0.611L139.383,232.266z"/>
			<path fill="#800654" d="M156.693,223.424v12.004c0,0,13.5-2.075,8.127,4.76c0,0-5.475,2.074-8.059-2.006l-0.035,5.848
				c0.953,1.295,3.943,2.111,5.1,2.246c11.254,1.326,16.393-16.529-0.271-15.234v-2.789h9.795v-4.828H156.693"/>
			<path fill="#800654" d="M131.375,233.456c2.164-1.092,3.584-2.792,3.584-4.727c0-3.293-4.051-5.964-9.045-5.964
				c-4.992,0-9.039,2.671-9.039,5.964c0,2.035,1.551,3.827,3.91,4.905c-2.447,1.321-4.053,3.504-4.053,5.978
				c0,4.036,4.264,7.309,9.523,7.309c5.258,0,9.521-3.272,9.521-7.309C135.777,237.024,134.02,234.752,131.375,233.456z
				 M125.848,227.875c1.754,0,3.176,0.992,3.176,2.213c0,1.223-1.422,2.213-3.176,2.213c-1.752,0-3.174-0.99-3.174-2.213
				C122.674,228.868,124.096,227.875,125.848,227.875z M126.256,242.016c-2.072,0-3.75-1.075-3.75-2.404
				c0-1.33,1.678-2.406,3.75-2.406s3.752,1.076,3.752,2.406C130.008,240.941,128.328,242.016,126.256,242.016z"/>
		</g>
		<g>
			<path fill="#800654" d="M119.521,72.353c-2.389,0-4.327,1.162-4.327,2.597c0,1.436,1.938,2.598,4.327,2.598
				c2.393,0,4.33-1.162,4.33-2.598C123.852,73.515,121.914,72.353,119.521,72.353z"/>
			<path fill="#800654" d="M139.857,79.436c-2.283,0-4.135,0.73-4.135,1.633c0,0.906,1.852,1.636,4.135,1.636
				c2.285,0,4.139-0.729,4.139-1.636C143.996,80.167,142.143,79.436,139.857,79.436z"/>
			<polygon fill="#800654" points="129.588,73.862 133.195,76.921 136.799,73.862 133.195,69.507 			"/>
			<ellipse fill="#800654" cx="116.598" cy="81.954" rx="3.558" ry="1.635"/>
			<path fill="#800654" d="M126.527,79.436c-2.285,0-4.135,0.73-4.135,1.633c0,0.906,1.85,1.636,4.135,1.636
				s4.139-0.729,4.139-1.636C130.666,80.167,128.813,79.436,126.527,79.436z"/>
			<path fill="#800654" d="M149.789,80.319c-1.967,0-3.561,0.733-3.561,1.637c0,0.902,1.594,1.634,3.561,1.634
				c1.963,0,3.559-0.731,3.559-1.634C153.348,81.052,151.752,80.319,149.789,80.319z"/>
			<ellipse fill="#800654" cx="146.865" cy="74.95" rx="4.328" ry="2.597"/>
			<path fill="#800654" d="M170.602,47.234c5.064-5.102-1.055-7.106-1.055-7.106c2.313-6.021-4.354-6.021-4.354-6.021
				c0.068-4.965-5.781-3.741-5.781-3.741c-3.16-3.705-5.645,0-5.645,0c-4.863-3.127-6.496,1.598-6.496,1.598
				c-3.988-1.549-5.51,2.518-5.51,2.518c-2.043-3.278-4.016-5.033-5.846-5.811l0.135-1.807l5.406,2.074l-0.033-11.732l-5.51,4.012
				l3.943-5.235l-12.582,0.068l4.15,5.303l-5.238-4.42l0.137,12.38L131.152,27v1.632l0.115,0.001
				c-3.609,1.461-5.961,5.848-5.961,5.848s-2.078-4.115-6.191-2.518c0,0-1.633-4.725-6.496-1.598c0,0-2.483-3.705-5.646,0
				c0,0-5.849-1.224-5.78,3.741c0,0-6.665,0-4.353,6.021c0,0-6.122,2.005-1.055,7.106c0,0-4.591,4.014,1.055,7.039
				c0,0-1.102,2.233,0.1,4.064c0.527,0.804,1.498,1.529,3.199,1.954c0,0,1.258,11.835,3.773,16.257c0,0-1.529,8.229,1.123,9.76
				c0,0,11.154,1.054,13.57-1.054h14.59h14.586c2.414,2.107,13.57,1.054,13.57,1.054c2.65-1.531,1.121-9.76,1.121-9.76
				c2.518-4.422,3.775-16.257,3.775-16.257c1.701-0.425,2.672-1.15,3.199-1.954c1.201-1.831,0.1-4.064,0.1-4.064
				C175.191,51.248,170.602,47.234,170.602,47.234z M136.764,22.306l3.604-2.006l-0.102,6.462l-3.707-1.803
				C137.715,23.633,136.764,22.306,136.764,22.306z M127.752,27.102l-0.104-7.415l2.586,2.651c0,0-0.713,1.805,0.34,3.03
				L127.752,27.102z M169.582,41.34c1.193,0,2.164,1.056,2.164,2.355c0,1.303-0.971,2.356-2.164,2.356
				c-1.197,0-2.166-1.054-2.166-2.356C167.416,42.396,168.385,41.34,169.582,41.34z M166.826,35.36c1.301,0,2.357,1.099,2.357,2.455
				c0,1.353-1.057,2.451-2.357,2.451s-2.357-1.099-2.357-2.451C164.469,36.458,165.525,35.36,166.826,35.36z M162.133,31.423
				c1.248,0,2.26,1.033,2.26,2.311c0,1.272-1.012,2.309-2.26,2.309s-2.26-1.036-2.26-2.309
				C159.873,32.457,160.885,31.423,162.133,31.423z M156.592,29.696c1.301,0,2.355,1.077,2.355,2.404
				c0,1.329-1.055,2.404-2.355,2.404c-1.303,0-2.359-1.075-2.359-2.404C154.232,30.773,155.289,29.696,156.592,29.696z
				 M150.943,30.33c1.33,0,2.406,1.097,2.406,2.45c0,1.355-1.076,2.455-2.406,2.455c-1.326,0-2.402-1.1-2.402-2.455
				C148.541,31.426,149.617,30.33,150.943,30.33z M145.539,32.525c1.352,0,2.451,1.118,2.451,2.501c0,1.381-1.1,2.5-2.451,2.5
				c-1.357,0-2.455-1.119-2.455-2.5C143.084,33.643,144.182,32.525,145.539,32.525z M141.627,35.161c0,0,2.654,2.789,0.271,4.422
				c0,0-1.564,0.545-1.77-0.068C140.129,39.514,141.695,38.427,141.627,35.161z M140.129,42.167l12.584-4.558
				c15.441-1.632,10.338,14.148,10.338,14.148l-1.836-0.748c4.625-14.216-7.82-11.902-7.82-11.902l-13.266,3.876V42.167z
				 M149.109,61.755c-1.498-1.497-3.129-10.339,0.814-10.066C155.783,52.093,149.109,61.755,149.109,61.755z M149.707,66.379
				c0,0.584-0.602,1.059-1.348,1.059c-0.744,0-1.346-0.475-1.346-1.059c0-0.585,0.602-1.058,1.346-1.058
				C149.105,65.322,149.707,65.794,149.707,66.379z M156.182,63.66c0,0-2.361,2.248-5.17-1.495
				C151.012,62.165,155.367,59.987,156.182,63.66z M139.043,47.744l0.066-3.333l11.359-3.808c13.875-4.489,9.793,9.931,9.793,9.931
				C157.066,47.064,139.043,47.744,139.043,47.744z M146.389,61.481c0,0-5.578,2.179-5.305-0.27
				C141.596,56.594,146.389,61.481,146.389,61.481z M136.73,39.378l0.068-2.721l2.514,0.136
				C139.518,39.718,136.73,39.378,136.73,39.378z M139.824,34.618v1.156h-3.809c0,0,0.205-0.918-0.576-1.089L139.824,34.618z
				 M133.195,47.307c-1.225,0-2.215-1.099-2.215-2.455c0-1.354,0.99-2.451,2.215-2.451c1.219,0,2.211,1.098,2.211,2.451
				C135.406,46.208,134.414,47.307,133.195,47.307z M135.406,50.669c0,1.435-0.992,2.595-2.211,2.595
				c-1.225,0-2.215-1.16-2.215-2.595s0.99-2.597,2.215-2.597C134.414,48.073,135.406,49.235,135.406,50.669z M130.992,41.198
				c-0.127-0.341-0.199-0.715-0.199-1.105c0-1.567,1.121-2.839,2.504-2.839c1.379,0,2.498,1.271,2.498,2.839
				c0,0.391,0.094,1.323-0.195,1.105C133.381,39.512,130.992,41.198,130.992,41.198z M138.633,33.495l-2.957,0.033v-3.876
				C139.008,30.977,138.633,33.495,138.633,33.495z M129.521,17.036l7.582,0.068l-2.549,3.772c0,0-0.748-0.646-2.041,0.069
				L129.521,17.036z M131.26,23.531c0-1.144,1.033-2.068,2.309-2.068s2.307,0.925,2.307,2.068c0,0.96-0.941,2.068-2.307,2.068
				C132.293,25.599,131.26,24.673,131.26,23.531z M132.207,28.225v-1.701h2.992v1.701H132.207z M134.418,29.379v3.707h-2.143v-3.707
				H134.418z M133.195,34.928c2.029,0,1.998,2.053,2.039,2.096c-1.854-1.942-4.012-0.026-4.012-0.026
				C131.223,35.856,132.104,34.928,133.195,34.928z M131.152,29.755v3.806h-3.334C127.547,32.27,131.152,29.755,131.152,29.755z
				 M131.152,34.651c-0.781,0.443-0.611,1.156-0.611,1.156l-3.23-0.033l-0.035-1.156L131.152,34.651z M129.996,37.27l-0.135,2.448
				c-3.131,0.271-2.518-2.993-2.518-2.993h2.584L129.996,37.27z M127.344,47.744c0,0-18.023-0.68-21.219,2.79
				c0,0-4.082-14.42,9.793-9.931l11.357,3.808L127.344,47.744z M125.303,61.211c0.271,2.448-5.305,0.27-5.305,0.27
				S124.789,56.594,125.303,61.211z M116.461,51.689c3.947-0.272,2.313,8.569,0.816,10.066
				C117.277,61.755,110.604,52.093,116.461,51.689z M115.374,62.165c-2.808,3.743-5.169,1.495-5.169,1.495
				C111.02,59.987,115.374,62.165,115.374,62.165z M118.027,65.322c0.742,0,1.346,0.473,1.346,1.058
				c0,0.584-0.604,1.059-1.346,1.059c-0.744,0-1.35-0.475-1.35-1.059C116.678,65.794,117.283,65.322,118.027,65.322z
				 M126.393,34.821v0.205c-1.564,2.039,0.746,4.829,0.746,4.829c-0.543,0.272-1.496-0.137-1.496-0.137
				C122.311,35.501,126.393,34.821,126.393,34.821z M120.85,32.525c1.354,0,2.451,1.118,2.451,2.501c0,1.381-1.098,2.5-2.451,2.5
				c-1.357,0-2.455-1.119-2.455-2.5C118.395,33.643,119.492,32.525,120.85,32.525z M115.442,30.33c1.328,0,2.404,1.097,2.404,2.45
				c0,1.355-1.076,2.455-2.404,2.455c-1.328,0-2.405-1.1-2.405-2.455C113.037,31.426,114.114,30.33,115.442,30.33z M109.796,29.696
				c1.301,0,2.356,1.077,2.356,2.404c0,1.329-1.056,2.404-2.356,2.404c-1.302,0-2.356-1.075-2.356-2.404
				C107.44,30.773,108.495,29.696,109.796,29.696z M113.673,37.609l12.583,4.558v0.816l-13.262-3.876c0,0-12.447-2.313-7.821,11.902
				l-1.836,0.748C103.336,51.757,98.235,35.977,113.673,37.609z M104.252,31.423c1.249,0,2.262,1.033,2.262,2.311
				c0,1.272-1.013,2.309-2.262,2.309c-1.248,0-2.26-1.036-2.26-2.309C101.993,32.457,103.004,31.423,104.252,31.423z M99.561,35.36
				c1.301,0,2.355,1.099,2.355,2.455c0,1.353-1.055,2.451-2.355,2.451c-1.303,0-2.357-1.099-2.357-2.451
				C97.204,36.458,98.258,35.36,99.561,35.36z M94.641,43.696c0-1.3,0.969-2.355,2.166-2.355c1.194,0,2.163,1.056,2.163,2.355
				c0,1.303-0.969,2.356-2.163,2.356C95.61,46.052,94.641,44.999,94.641,43.696z M94.77,50.907c0-1.223,1.033-2.213,2.309-2.213
				c1.273,0,2.309,0.99,2.309,2.213c0,1.221-1.035,2.212-2.309,2.212C95.803,53.119,94.77,52.127,94.77,50.907z M99.833,59.157
				c-1.355,0-2.454-1.228-2.454-2.741c0-1.515,1.099-2.741,2.454-2.741c1.354,0,2.452,1.227,2.452,2.741
				C102.286,57.929,101.187,59.157,99.833,59.157z M133.195,83.587c-4.152-0.272-27.683,0.815-27.683,0.815
				c8.91-1.291,3.196-3.809,3.196-3.809c-0.067-1.429,24.487-1.904,24.487-1.904s24.551,0.476,24.484,1.904
				c0,0-5.715,2.518,3.195,3.809C160.875,84.403,137.342,83.315,133.195,83.587z M160.67,75.494
				c-8.434-1.155-2.787,4.012-4.215,3.265c-1.43-0.749-23.26-1.088-23.26-1.088s-21.835,0.339-23.263,1.088
				c-1.428,0.747,4.217-4.42-4.217-3.265c0,0-4.896-10.609-4.557-15.848c0,0,1.973-0.476,2.178-0.611
				c0.203-0.136-1.088,2.79-0.341,6.46c0,0,1.428,0.272,4.624-3.195l1.225,4.896c0,0-3.129-1.155-5.508-0.272
				c0,0,7.617,14.146,15.437,1.905c0,0,6.4,8.705,13.398-0.517v-4.243c-2.857-0.749-5.406,1.665-5.406,1.665v-6.121
				c1.598,2.245,5.441,1.668,5.441,1.668c0.375-2.789-1.666-6.463-1.666-6.463l2.654-0.033l2.65,0.033c0,0-2.039,3.674-1.666,6.463
				c0,0,3.842,0.577,5.439-1.668v6.121c0,0-2.549-2.414-5.404-1.665v4.243c6.998,9.223,13.396,0.517,13.396,0.517
				c7.822,12.241,15.439-1.905,15.439-1.905c-2.381-0.883-5.508,0.272-5.508,0.272l1.225-4.896c3.195,3.468,4.623,3.195,4.623,3.195
				c0.748-3.67-0.545-6.596-0.34-6.46c0.203,0.136,2.176,0.611,2.176,0.611C165.568,64.884,160.67,75.494,160.67,75.494z
				 M166.555,59.157c-1.355,0-2.453-1.228-2.453-2.741c0-1.515,1.098-2.741,2.453-2.741c1.354,0,2.451,1.227,2.451,2.741
				C169.006,57.929,167.908,59.157,166.555,59.157z M171.617,50.907c0,1.221-1.033,2.212-2.309,2.212
				c-1.273,0-2.307-0.991-2.307-2.212c0-1.223,1.033-2.213,2.307-2.213C170.584,48.694,171.617,49.684,171.617,50.907z"/>
		</g>
	</g>
	<path fill="#800654" d="M89.869,116.894c1.052-0.194,2.575-0.872,2.575-2.891V98.088c-0.408,0.271,1.633-7.752-7.89-7.889
		c-9.521-0.137-58.22,0-58.22,0v56.316h60.804c-0.681,0.68,5.577-1.633,5.577-5.307c0-3.67,0-21.22,0-21.22
		C92.715,119.206,92.194,117.065,89.869,116.894z M71.768,131.417H44.29v-6.393h28.022
		C74.896,127.473,72.992,131.417,71.768,131.417z M71.578,111.788H44.099v-6.393h28.021C74.705,107.844,72.8,111.788,71.578,111.788
		z"/>
</g>
<circle fill="none" stroke="#800654" stroke-width="13.7154" stroke-miterlimit="10" cx="134.293" cy="134.292" r="127.435"/>
</svg>
